<svg xmlns="http://www.w3.org/2000/svg" aria-hidden="true" style="position:absolute;width:0;height:0;overflow:hidden">
    <defs>
        <symbol id="arrow" viewBox="0 0 49 32">
            <path stroke-linecap="round" stroke-linejoin="round" stroke-width="3.781"
                d="M3.048 16h42.667M24.381 28.952 45.714 16 24.381 3.048v25.905z" />
        </symbol>
        <symbol id="benefits-award" viewBox="0 0 25 32">
            <path
                d="M17.755 24.258V32l-5.471-2.168L6.607 32v-7.845c1.445 1.961 3.2 1.548 4.955.723.31-.103.619-.103.929 0 1.961.826 3.819 1.342 5.265-.619zM12.181 6.503c-3.097 0-5.471 2.477-5.471 5.471 0 3.097 2.477 5.471 5.471 5.471s5.471-2.477 5.471-5.471-2.374-5.471-5.471-5.471z" />
            <path
                d="m23.948 12.49-.516-.826a2.572 2.572 0 0 1-.31-1.755l.31-1.239a2.125 2.125 0 0 0-1.239-2.581l-.929-.413c-.619-.31-.929-.826-1.135-1.342l-.413-1.239c-.31-1.032-1.342-1.652-2.477-1.548l-1.032.103c-.619.103-1.239-.103-1.755-.413l-.929-.826c-.826-.619-2.065-.619-2.89 0l-.723.826c-.413.31-.929.516-1.652.516l-1.135-.206c-1.032-.103-2.065.619-2.477 1.548l-.31 1.032c-.206.619-.516 1.135-1.135 1.342l-1.032.516C1.137 6.501.724 7.533 1.034 8.669l.206 1.032c.206.619 0 1.135-.206 1.755l-.619 1.032c-.516.929-.413 2.065.413 2.787l.723.723c.516.413.723.929.826 1.548v1.239c.103 1.032.826 1.961 1.961 2.168l1.032.206c.619.103 1.135.31 1.548.929l.723.929c.619.929 1.755 1.239 2.787.826l.929-.413c.619-.31 1.135-.31 1.755 0l1.032.413c1.032.413 2.168.103 2.787-.826l.619-.826c.31-.516.826-.826 1.548-.929l1.135-.206c1.032-.206 1.858-1.135 1.858-2.168l.103-1.032c0-.619.206-1.239.723-1.652l.826-.826c.619-.826.826-1.961.206-2.89zM12.284 19.2c-4.026 0-7.123-3.2-7.123-7.123s3.097-7.123 7.123-7.123c3.923 0 7.123 3.2 7.123 7.123-.103 3.923-3.2 7.123-7.123 7.123z" />
        </symbol>
        <symbol id="benefits-discount" viewBox="0 0 31 32">
            <path stroke-width="1.3"
                d="M7.4 1h16.2c3.6 0 6.5 2.9 6.5 6.5v17c0 3.6-2.9 6.5-6.5 6.5H7.4C3.8 31 .9 28.1.9 24.5v-17C.9 3.9 3.8 1 7.4 1z" />
            <path
                d="M12 17.2c1.5 0 2.5-1 2.5-2.4v-2.3c0-1.4-1-2.4-2.5-2.4s-2.5 1-2.5 2.4v2.3c0 1.4 1.1 2.4 2.5 2.4zm.9 5.3 7.5-10.7-1.5-1.1-7.5 10.7 1.5 1.1zm-.9-6.9c-.4 0-.8-.3-.8-.8v-2.2c-.1-1 1.6-1 1.5 0v2.2c.1.4-.2.8-.7.8zm7.7 7.6c1.5 0 2.6-1 2.6-2.4v-2.3c0-1.4-1.1-2.4-2.6-2.4s-2.5 1-2.5 2.4v2.3c0 1.4 1.1 2.4 2.5 2.4zm.1-1.6c-.5 0-.8-.4-.8-.8v-2.2c0-.4.3-.8.8-.8s.8.3.8.8v2.2c-.1.5-.4.8-.8.8z" />
        </symbol>
        <symbol id="benefits-ticket" viewBox="0 0 48 32">
            <path
                d="M13.964 12.945c-.145 0-.582-.145-1.018-.145h-2.182v3.055h2.182c.727 0 1.309-.145 1.6-.436s.436-.582.436-1.164c0-.291-.145-.727-.291-.873s-.436-.291-.727-.436zM19.636 12.8c-.145.582-.291 1.018-.436 1.6l-.873 2.473h2.909l-1.018-2.327c-.291-.727-.436-1.309-.582-1.745z" />
            <path
                d="M44.364 14.836c0-1.891 1.309-3.636 3.055-4.218V2.909C47.419 1.309 46.11 0 44.51 0H2.91A2.917 2.917 0 0 0 .001 2.909v7.709c1.745.582 3.055 2.327 3.055 4.218S1.747 18.472.001 19.054v9.164c0 1.6 1.309 2.909 2.909 2.909h41.455c1.6 0 2.909-1.309 2.909-2.909v-9.164c-1.6-.582-2.909-2.327-2.909-4.218zm-31.419 2.037h-2.182v3.491H9.599v-8.436h3.2c.582 0 1.018 0 1.309.145.436 0 .727.145 1.018.436.291.145.582.436.727.873.145.291.291.727.291 1.164 0 .727-.291 1.309-.727 1.891-.436.291-1.309.436-2.473.436zm9.455 3.491-1.018-2.618h-3.491l-1.018 2.618h-1.164l3.2-8.436h1.164l3.491 8.436H22.4zm8.145-1.164c-.291.436-.582.727-1.164.873-.436.291-1.018.291-1.6.291a6.437 6.437 0 0 1-1.891-.291c-.582-.291-.873-.582-1.164-1.018s-.436-1.018-.436-1.455l1.018-.145c0 .436.145.727.291 1.018s.436.436.873.727c.436.145.873.291 1.309.291s.873 0 1.164-.145c.291-.145.582-.291.727-.582s.291-.436.291-.727-.145-.436-.291-.727c-.145-.145-.436-.436-.727-.436-.291-.145-.727-.291-1.455-.436s-1.309-.291-1.6-.582c-.436-.145-.727-.436-.873-.727s-.291-.727-.291-1.018c0-.436.145-.873.436-1.164.291-.436.582-.727 1.018-.873s1.018-.291 1.6-.291c.582 0 1.164.145 1.6.291s.873.436 1.164.873c.291.436.436.873.436 1.309l-1.018.145c0-.582-.291-.873-.582-1.164s-.873-.436-1.455-.436c-.727 0-1.164.145-1.455.436s-.436.582-.436.873c0 .291.145.582.291.727s.727.436 1.745.582c.873.145 1.6.436 1.891.582.436.291.873.582 1.164.873s.291.727.291 1.164c-.436.436-.582.873-.873 1.164zm8 0c-.291.436-.582.727-1.164.873-.436.291-1.018.291-1.6.291a6.437 6.437 0 0 1-1.891-.291c-.582-.291-.873-.582-1.164-1.018s-.436-1.018-.436-1.455l1.018-.145c0 .436.145.727.291 1.018s.436.436.873.727c.436.145.873.291 1.309.291s.873 0 1.164-.145c.291-.145.582-.291.727-.582s.291-.436.291-.727-.145-.436-.291-.727c-.145-.145-.436-.436-.727-.436-.291-.145-.727-.291-1.455-.436s-1.309-.291-1.6-.582c-.436-.145-.727-.436-.873-.727s-.291-.727-.291-1.018c0-.436.145-.873.291-1.164.291-.436.582-.727 1.018-.873s1.018-.291 1.6-.291c.582 0 1.164.145 1.6.291s.873.436 1.164.873c.291.436.436.873.436 1.309l-1.018.145c0-.582-.291-.873-.582-1.164s-.873-.436-1.455-.436c-.727 0-1.164.145-1.455.436s-.436.582-.436.873c0 .291.145.582.291.727s.727.436 1.745.582c.873.145 1.6.436 1.891.582.436.291.873.582 1.164.873s.291.727.291 1.164c-.436.436-.582.873-.727 1.164z" />
        </symbol>
        <symbol id="advans-arrow" viewBox="0 0 32 32">
            <path fill="#0cc" stroke="#173753" stroke-linecap="round" stroke-linejoin="round" stroke-width="1.91"
                d="M15.86 30.596c8.139 0 14.737-6.598 14.737-14.737S23.999 1.122 15.86 1.122 1.123 7.72 1.123 15.859 7.721 30.596 15.86 30.596z"
                style="fill:var(--color1, #0cc);stroke:var(--color2, #173753)" />
            <path fill="#e5f9f9"
                d="M15.86 26.175c5.697 0 10.316-4.619 10.316-10.316S21.557 5.543 15.86 5.543c-5.697 0-10.316 4.619-10.316 10.316s4.619 10.316 10.316 10.316z"
                style="fill:var(--color3, #e5f9f9)" />
            <path fill="none" stroke="#173753" stroke-linecap="round" stroke-linejoin="round" stroke-width="1.393"
                d="M12.351 16.065h7.427m-3.713 3.713 3.714-3.714-3.714-3.714v7.427z"
                style="stroke:var(--color2, #173753)" />
        </symbol>
        <symbol id="advans-milkshake" viewBox="0 0 21 32">
            <path fill="#0cc" stroke="#173753" stroke-linecap="round" stroke-linejoin="round" stroke-width="1.405"
                d="M4.697 1.77 7.429.721l1.748 4.553-2.732 1.049L4.697 1.77z"
                style="fill:var(--color1, #0cc);stroke:var(--color2, #173753)" />
            <path fill="#e5f9f9" stroke="#0f2336" stroke-linecap="round" stroke-linejoin="round" stroke-width="1.405"
                d="M10.982 4.919a7.609 7.609 0 0 1 7.023 10.542l-1.282 11.254a4.683 4.683 0 0 1-4.652 4.152H9.309a4.683 4.683 0 0 1-4.652-4.152l-1.283-11.26h.583A7.609 7.609 0 0 1 10.983 4.92z"
                style="fill:var(--color3, #e5f9f9);stroke:var(--color4, #0f2336)" />
            <path fill="#00c9c9"
                d="M12.158 21.958c1.949 1.299 3.659 2.03 5.131 2.195l-.242 2.418a5.1 5.1 0 0 1-5.074 4.591H9.325a5.1 5.1 0 0 1-5.074-4.591l-.511-5.1c2.605-1.677 5.411-1.515 8.417.488z"
                style="fill:var(--color5, #00c9c9)" />
            <path fill="none" stroke="#173753" stroke-linecap="round" stroke-linejoin="round" stroke-width="1.405"
                d="M10.982 4.919a7.609 7.609 0 0 1 7.023 10.542l-1.282 11.254a4.683 4.683 0 0 1-4.652 4.152H9.309a4.683 4.683 0 0 1-4.652-4.152l-1.283-11.26h.583A7.609 7.609 0 0 1 10.983 4.92v0z"
                style="stroke:var(--color2, #173753)" />
            <path fill="#e5f9f9" stroke="#173753" stroke-linecap="round" stroke-linejoin="round" stroke-width="1.405"
                d="M18.884 11.943H2.496c-.808 0-1.463.655-1.463 1.463v.585c0 .808.655 1.463 1.463 1.463h16.388c.808 0 1.463-.655 1.463-1.463v-.585c0-.808-.655-1.463-1.463-1.463z"
                style="fill:var(--color3, #e5f9f9);stroke:var(--color2, #173753)" />
        </symbol>
        <symbol id="advans-procent" viewBox="0 0 32 32">
            <path fill="#0cc" stroke="#173753" stroke-linecap="round" stroke-linejoin="round" stroke-width="1.91"
                d="M16.14 30.877c8.139 0 14.737-6.598 14.737-14.737S24.279 1.403 16.14 1.403 1.403 8.001 1.403 16.14 8.001 30.877 16.14 30.877z"
                style="fill:var(--color1, #0cc);stroke:var(--color2, #173753)" />
            <path fill="#e5f9f9"
                d="M16.211 26.526c5.697 0 10.316-4.619 10.316-10.316S21.908 5.894 16.211 5.894c-5.697 0-10.316 4.619-10.316 10.316s4.619 10.316 10.316 10.316z"
                style="fill:var(--color3, #e5f9f9)" />
            <path fill="#173753"
                d="M12.968 16.8c1.123 0 1.951-.744 1.951-1.853v-1.768c0-1.109-.828-1.853-1.951-1.853s-1.951.744-1.951 1.853v1.768c0 1.109.828 1.853 1.951 1.853zm.534 4.168 5.895-8.379-1.095-.786-5.881 8.379 1.081.786zm-.534-5.319c-.407 0-.702-.323-.702-.73v-1.712c0-.407.295-.716.702-.716s.716.323.716.716v1.712c0 .407-.309.73-.716.73zm5.867 5.867c1.123 0 1.951-.744 1.951-1.853v-1.768c0-1.109-.828-1.853-1.951-1.853s-1.937.744-1.937 1.853v1.768c0 1.109.814 1.853 1.937 1.853zm0-1.151c-.407 0-.688-.323-.688-.73v-1.712c0-.407.281-.716.688-.716s.716.323.716.716v1.712c0 .407-.309.73-.716.73z"
                style="fill:var(--color2, #173753)" />
        </symbol>
        <symbol id="app-store" viewBox="0 0 99 32">
            <path fill="#240c39"
                d="M4.267 0H94.4a4.28 4.28 0 0 1 4.267 4.267v23.467a4.28 4.28 0 0 1-4.267 4.267H4.267A4.28 4.28 0 0 1 0 27.734V4.267A4.28 4.28 0 0 1 4.267 0z"
                style="fill:var(--color6, #240c39)" />
            <path fill="#fff"
                d="M38.08 19.893h-3.04l-.747 2.187h-1.227l2.88-8.053h1.333l2.88 8.053h-1.28l-.8-2.187zm-2.667-1.013h2.4l-1.173-3.52h-.053l-1.173 3.52zm10.934.267c0 1.813-.96 2.987-2.4 2.987-.747.053-1.44-.373-1.813-1.013h-.053v2.88h-1.173v-7.84h1.173v.96c.373-.64 1.067-1.067 1.867-1.013 1.387 0 2.4 1.173 2.4 3.04zm-1.227 0c0-1.173-.587-1.973-1.547-1.973-.907 0-1.493.8-1.493 1.973s.587 1.973 1.493 1.973c.907 0 1.547-.8 1.547-1.973zm7.573 0c0 1.813-.96 2.987-2.4 2.987-.747.053-1.44-.373-1.813-1.013h-.053v2.88h-1.173v-7.84h1.173v.96c.373-.64 1.067-1.067 1.867-1.013 1.44 0 2.4 1.173 2.4 3.04zm-1.226 0c0-1.173-.587-1.973-1.547-1.973-.907 0-1.493.8-1.493 1.973s.587 1.973 1.493 1.973c.96 0 1.547-.8 1.547-1.973zm5.44.64c.107.8.853 1.333 1.92 1.333 1.013 0 1.707-.533 1.707-1.227 0-.64-.427-1.013-1.44-1.28l-1.013-.267c-1.44-.373-2.133-1.067-2.133-2.187 0-1.387 1.173-2.347 2.88-2.347 1.653 0 2.827.96 2.88 2.347h-1.173c-.053-.8-.747-1.28-1.707-1.28s-1.6.48-1.6 1.227c0 .587.427.907 1.44 1.173l.853.213c1.653.373 2.293 1.067 2.293 2.24 0 1.493-1.173 2.453-3.04 2.453-1.76 0-2.933-.907-3.04-2.4h1.173zm7.466-5.014v1.387h1.12v.96h-1.12v3.253c0 .48.213.747.693.747.107 0 .267 0 .373-.053v.96c-.213.053-.427.053-.64.053-1.173 0-1.653-.427-1.653-1.6v-3.36h-.853v-.96h.853v-1.387h1.227zm1.707 4.374c0-1.867 1.067-2.987 2.72-2.987s2.72 1.173 2.72 2.987c0 1.867-1.067 2.987-2.72 2.987s-2.72-1.173-2.72-2.987zm4.267 0c0-1.28-.587-2.027-1.547-2.027s-1.547.747-1.547 2.027c0 1.28.587 2.027 1.547 2.027 1.013-.053 1.547-.8 1.547-2.027zm2.24-2.987h1.12v1.013h.053c.16-.64.747-1.067 1.387-1.067.16 0 .267 0 .427.053v1.12c-.16-.053-.373-.053-.533-.053-.373 0-.693.107-.907.373s-.373.587-.32.96v3.467h-1.173l-.053-5.867zm8.426 4.16c-.16 1.067-1.173 1.813-2.507 1.813-1.707 0-2.72-1.12-2.72-2.987s1.067-3.04 2.667-3.04c1.6 0 2.613 1.12 2.613 2.88v.427h-4.107v.053c-.053.427.107.853.427 1.173s.693.48 1.173.48a1.29 1.29 0 0 0 1.333-.8h1.12zm-4.053-1.76h2.88c0-.373-.107-.8-.373-1.067s-.64-.427-1.013-.427c-.373 0-.747.16-1.067.427-.267.32-.427.693-.427 1.067zM34.987 8.747a1.536 1.536 0 0 1 1.333.533c.373.373.533.907.427 1.44 0 1.28-.64 2.027-1.813 2.027h-1.333v-4h1.387zm-.8 3.413h.693c.373 0 .693-.107.96-.427a1.18 1.18 0 0 0 .32-1.013 1.178 1.178 0 0 0-.32-1.013c-.213-.267-.587-.427-.96-.427h-.693v2.88zm3.253-.96c-.053-.533.213-1.067.64-1.333s1.013-.267 1.44 0c.427.267.693.8.64 1.333.053.533-.213 1.067-.64 1.333s-1.013.267-1.44 0c-.427-.267-.693-.747-.64-1.333zm2.133 0c0-.64-.267-1.013-.747-1.013s-.747.373-.747 1.013c0 .64.267 1.067.747 1.067s.747-.373.747-1.067zm4.214 1.547H43.2l-.587-2.24h-.053l-.587 2.24h-.587l-.8-3.04h.587L41.706 12h.053l.587-2.293h.533L43.466 12h.053l.533-2.293h.587c-.053 0-.853 3.04-.853 3.04zm1.44-3.04h.533v.48h.053c.16-.373.48-.587.853-.533.267 0 .587.107.747.32.213.213.267.533.267.8v1.973h-.587v-1.813c0-.48-.213-.747-.64-.747-.213 0-.373.053-.533.213s-.213.373-.16.533v1.76h-.587c.053.053.053-2.987.053-2.987zm3.36-1.174h.587v4.213h-.587V8.533zm1.386 2.667c-.053-.533.213-1.067.64-1.333s1.013-.267 1.44 0c.427.267.693.8.64 1.333.053.533-.213 1.067-.64 1.333s-1.013.267-1.44 0c-.48-.267-.693-.747-.64-1.333zm2.134 0c0-.64-.267-1.013-.747-1.013s-.747.373-.747 1.013c0 .64.267 1.067.747 1.067.427 0 .747-.373.747-1.067zm1.173.693c0-.533.373-.853 1.067-.907l.8-.053v-.267c0-.32-.213-.48-.587-.48-.32 0-.533.107-.587.32h-.533c.053-.533.533-.853 1.173-.853.747 0 1.12.373 1.12 1.013v2.08H55.2v-.427h-.053c-.16.32-.533.48-.853.48-.267 0-.48-.053-.693-.213-.213-.213-.32-.427-.32-.693zm1.867-.266v-.267l-.693.053c-.373.053-.587.16-.587.427s.213.427.533.427c.16 0 .373-.053.48-.16.16-.107.213-.267.267-.48zm1.28-.427c0-.96.48-1.547 1.173-1.547.373 0 .693.213.907.533h.053V8.533h.587v4.213h-.533v-.48h-.053c-.16.32-.533.533-.907.533-.747 0-1.227-.64-1.227-1.6zm.586 0c0 .64.267 1.013.747 1.013s.8-.373.8-1.013c0-.64-.32-1.013-.8-1.013-.427 0-.747.373-.747 1.013zm4.48 0c-.053-.533.213-1.067.64-1.333s1.013-.267 1.44 0c.427.267.693.8.64 1.333.053.533-.213 1.067-.64 1.333s-1.013.267-1.44 0c-.427-.267-.693-.747-.64-1.333zm2.134 0c0-.64-.267-1.013-.747-1.013s-.747.373-.747 1.013c0 .64.267 1.067.747 1.067s.747-.373.747-1.067zm1.333-1.493h.533v.48h.053c.16-.373.48-.587.853-.533.267 0 .587.107.747.32.213.213.267.533.267.8v1.973h-.587v-1.813c0-.48-.213-.747-.64-.747a.684.684 0 0 0-.533.213c-.107.16-.213.373-.16.533v1.76h-.587l.053-2.987zm5.653-.747v.747h.64v.48h-.64v1.547c0 .32.107.48.427.48h.213v.48c-.107 0-.213.053-.32.053-.64 0-.907-.213-.907-.8V10.24h-.48v-.48h.48v-.747l.587-.053zm1.44-.427h.587v1.653h.053c.16-.373.48-.587.853-.533.267 0 .587.107.747.32.213.213.267.533.267.8v1.973h-.587v-1.813c0-.48-.213-.747-.64-.747-.213 0-.373.053-.533.213s-.213.373-.213.533v1.76H72v-4.16h.053zm5.76 3.36c-.16.587-.693.96-1.227.853-.373 0-.747-.16-1.013-.48s-.373-.693-.32-1.12c-.053-.373.053-.8.32-1.12s.64-.48 1.013-.48c.8 0 1.28.587 1.28 1.547v.213h-2.027v.053c0 .213.053.427.213.587s.373.267.587.267c.267.053.533-.107.693-.373-.053.053.48.053.48.053zm-1.973-.96h1.44c0-.213-.053-.427-.213-.533-.107-.16-.32-.213-.533-.213s-.373.107-.533.213a.898.898 0 0 0-.16.533zm-48.907 4.96c0-1.067.587-2.08 1.493-2.667-.587-.853-1.493-1.333-2.507-1.387-1.067-.107-2.08.64-2.613.64s-1.387-.64-2.293-.587a3.377 3.377 0 0 0-2.827 1.76c-1.227 2.133-.32 5.28.853 6.987.587.853 1.28 1.76 2.187 1.76.853-.053 1.227-.587 2.24-.587 1.067 0 1.333.587 2.293.533.96 0 1.547-.853 2.08-1.707.427-.587.747-1.28.96-1.973-1.12-.427-1.867-1.547-1.867-2.773zm-1.706-5.12c.533-.64.747-1.44.693-2.24-.8.107-1.493.48-2.027 1.067s-.8 1.333-.747 2.133c.853 0 1.6-.373 2.08-.96z"
                style="fill:var(--color7, #fff)" />
        </symbol>
        <symbol id="market" viewBox="0 0 50 32">
            <path fill="#e0e3e6"
                d="M24.898 31.956c13.713 0 24.898-.771 24.898-1.717s-11.184-1.717-24.898-1.717S0 29.293 0 30.239c0 .946 11.184 1.717 24.898 1.717z"
                style="fill:var(--color8, #e0e3e6)" />
            <path fill="#f0f1f1" d="M9.816 27.654h29.646V9.478H9.816v18.176z" style="fill:var(--color9, #f0f1f1)" />
            <path fill="#292c6a"
                d="M36.508 27.289H11.023c-.265 0-.561-.031-.841-.026V9.843h28.073c.265 0 .561.031.842.026v17.42h-2.588zm2.953-18.176H13.464c-1.195 0-2.402-.051-3.596 0h-.053a.37.37 0 0 0-.365.365v18.176c0 .197.168.365.365.365h25.997c1.195 0 2.402.051 3.596 0h.053a.337.337 0 0 0 .247-.098l.013-.012.007-.007a.337.337 0 0 0 .099-.249V9.477a.37.37 0 0 0-.365-.365z"
                style="fill:var(--color10, #292c6a)" />
            <path fill="#f0f1f1" d="M7.544 29.631h34.145v-1.977H7.544v1.977z" style="fill:var(--color9, #f0f1f1)" />
            <path fill="#292c6a"
                d="M38.33 29.618H8.975c-.328 0-.689-.037-1.031-.026v-1.574h32.383c.328 0 .689.037 1.031.026v1.574h-3.029zm3.394-2.329H11.788c-1.379 0-2.771-.055-4.149 0H7.58a.37.37 0 0 0-.365.365v2.33a.37.37 0 0 0 .365.365h29.936c1.38 0 2.771.055 4.15 0h.059a.37.37 0 0 0 .365-.365v-2.33a.37.37 0 0 0-.365-.365z"
                style="fill:var(--color10, #292c6a)" />
            <path fill="#39c0c4" d="M29.916 27.653h6.807V15.611h-6.807v12.042z" style="fill:var(--color11, #39c0c4)" />
            <path fill="#292c6a"
                d="M30.77 27.289h-.488V15.977h6.077v11.312H30.77zm5.954-12.043h-6.807a.37.37 0 0 0-.365.365v12.043a.37.37 0 0 0 .365.365h6.807a.337.337 0 0 0 .247-.098l.012-.012.007-.007a.338.338 0 0 0 .099-.248V15.611a.371.371 0 0 0-.365-.365z"
                style="fill:var(--color10, #292c6a)" />
            <path fill="#d4dae0" d="M13.019 21.27h13.515v-5.659H13.019v5.659z" style="fill:var(--color12, #d4dae0)" />
            <path fill="#292c6a"
                d="M21.965 20.905h-8.581v-4.929h12.785v4.929h-4.204zm4.934-5.294a.37.37 0 0 0-.365-.365H13.019a.37.37 0 0 0-.365.365v5.659a.37.37 0 0 0 .365.365h13.515a.335.335 0 0 0 .247-.098l.012-.012.007-.007a.335.335 0 0 0 .099-.249V15.61z"
                style="fill:var(--color10, #292c6a)" />
            <path fill="#f0f1f1"
                d="M12.319 9.572 13.816.481h3.906l-.51 9.091s-.146 2.446-2.447 2.446-2.446-2.446-2.446-2.446zm9.785 0V.481h4.892v9.091s-.073 2.446-2.446 2.446-2.446-2.446-2.446-2.446zm9.784 0L31.742.481h4.052l.986 9.091s-.11 2.081-2.154 2.41-2.689-1.53-2.738-2.41z"
                style="fill:var(--color9, #f0f1f1)" />
            <path fill="#39c0c4"
                d="M41.673 9.572 39.775.481h-3.98l.986 9.091s0 2.446 2.446 2.446 2.446-2.446 2.446-2.446zM17.723.481h4.381v9.091s-.255 2.409-2.446 2.446-2.446-2.446-2.446-2.446l.511-9.091zm9.272 0v9.091s.11 2.482 2.446 2.446 2.446-2.446 2.446-2.446L31.741.481h-4.747zm-13.179 0-.644 3.912c-.272 1.651-.556 3.301-.816 4.955-.1.635-.219 1.212-.619 1.744-.447.595-1.127.901-1.864.926-2.264.073-2.27-2.519-2.27-2.519L10.019.481h3.797z"
                style="fill:var(--color11, #39c0c4)" />
            <path fill="#292c6a"
                d="M41.103 10.502c-.277.649-.837 1.052-1.538 1.134-.782.091-1.614-.125-2.05-.822-.231-.37-.34-.833-.367-1.177l-.006-.068c.005-.412-.053-.839-.115-1.261-.164-1.652-.377-3.302-.556-4.951L36.199.846h3.279l1.829 8.756a2.377 2.377 0 0 1-.204.9zm-4.708-.773c-.108.533-.326 1.038-.741 1.405-.658.581-1.812.737-2.535.19-.526-.397-.822-1.107-.866-1.753l-.004-.289v-.001l-.041-2.537-.002-.144c-.031-1.917-.034-3.838-.091-5.755h3.354l.749 6.907c.068.622.128 1.245.195 1.867.001.075.007-.019-.019.108zm-4.903.075c-.018.084-.035.168-.058.251a2.634 2.634 0 0 1-.251.621 1.884 1.884 0 0 1-1.277.93c-1.205.252-2.167-.412-2.462-1.565-.061-.236-.078-.315-.082-.478v-.042c.025-.433 0-.873 0-1.301V.847h4.021l.073 4.508.051 3.148.017 1.045a2.103 2.103 0 0 1-.01.137v.001l-.003.014a1.92 1.92 0 0 1-.018.105zm-4.864-.183a.83.83 0 0 1-.007.07l-.004.048c0-.004 0-.011-.004.017a3.062 3.062 0 0 1-.187.685c-.256.619-.755 1.054-1.421 1.175-.874.159-1.769-.134-2.213-.929a2.681 2.681 0 0 1-.279-.781c-.036-.173-.039-.156-.045-.335V6.566c0-1.906.032-3.815.003-5.721h4.158v7.977c0 .213-.004.423.003.631l-.003.116-.003.052zM20.02 11.62c-1.185.216-2.043-.556-2.351-1.641a3.576 3.576 0 0 1-.089-.395c.056-.492.053-.999.08-1.486l.112-1.992.295-5.259h3.672v8.725l-.005.022c-.198.934-.69 1.84-1.714 2.027zm-3.174-2.035-.003.051-.007.035a3.495 3.495 0 0 1-.173.659c-.236.622-.7 1.108-1.359 1.265-.858.204-1.771-.084-2.234-.852a2.85 2.85 0 0 1-.328-.835 3.996 3.996 0 0 1-.05-.261l-.007-.063.988-6.003.45-2.734h3.213l-.268 4.759-.067 1.206-.012.219-.025.443-.071 1.271c-.012.199-.028.391-.033.582l-.013.234-.002.025zm-4.963.301c-.157.649-.494 1.234-1.106 1.545a2.163 2.163 0 0 1-1.599.134c-.663-.217-.997-.86-1.139-1.501-.048-.218-.03-.313-.069-.522l.017-.063c.119-.41.221-.826.332-1.238L10.3.847h3.088l-.483 2.935c-.075.455-.149.909-.226 1.364-.137.825-.276 1.651-.412 2.477-.028.169-.053.339-.078.509l-.034.208-.178 1.077a.37.37 0 0 0-.023.15 8.69 8.69 0 0 1-.071.32zm30.141-.417-1.662-7.96-.236-1.125c-.032-.156-.199-.268-.352-.268H10.019a.37.37 0 0 0-.352.268L7.601 8.096c-.11.413-.237.825-.332 1.241-.074.32.008.679.083.993.183.754.616 1.483 1.34 1.822 1.069.501 2.477.185 3.236-.714.154-.182.276-.377.375-.581.336.671.902 1.216 1.65 1.421.895.247 1.927.078 2.63-.544.274-.242.488-.549.648-.882.353.698.93 1.27 1.723 1.456 1.291.302 2.517-.307 3.114-1.442.317.64.851 1.161 1.552 1.383.887.28 1.966.147 2.697-.447.291-.236.518-.541.686-.876.354.691.951 1.233 1.756 1.393 1.294.256 2.533-.281 3.127-1.423.49.957 1.434 1.604 2.635 1.464a3.064 3.064 0 0 0 2.231-1.431c.091.185.199.361.33.524.576.712 1.5.985 2.391.92 1.492-.109 2.559-1.315 2.566-2.802a.413.413 0 0 0-.014-.103z"
                style="fill:var(--color10, #292c6a)" />
        </symbol>
    </defs>
</svg>